<?xml version="1.0" encoding="utf-8"?>
<!-- Generator: Adobe Illustrator 15.1.0, SVG Export Plug-In . SVG Version: 6.00 Build 0)  -->
<!DOCTYPE svg PUBLIC "-//W3C//DTD SVG 1.1//EN" "http://www.w3.org/Graphics/SVG/1.1/DTD/svg11.dtd">
<svg version="1.1" id="Calque_1" xmlns="http://www.w3.org/2000/svg" xmlns:xlink="http://www.w3.org/1999/xlink" x="0px" y="0px"
	 width="1600px" height="832.562px" viewBox="0 0 1600 832.562" enable-background="new 0 0 1600 832.562" xml:space="preserve">
<g id="Calque_1_1_" display="none">
	<polygon display="inline" fill="#00A0C6" points="-53.363,80.597 0,58.69 89.13,22.1 224.123,59.598 357.616,51.349 
		423.613,80.597 479.11,22.1 591.604,67.098 692.1,51.349 779.095,80.597 896.09,37.1 990.585,80.597 1079.08,10.102 
		1254.571,98.596 1400.064,68.598 1449.562,98.596 1546.637,80.597 1689.13,22.1 1782.545,88.097 1748.047,1024.564 
		-93.861,1024.564 	"/>
</g>
<g id="Calque_2">
	<polygon fill="#FFFFFF" stroke="#000000" stroke-width="6" stroke-miterlimit="10" points="-33.866,175.087 -0.001,162.061 
		336.615,32.594 600.602,182.586 903.587,116.59 1119.576,182.586 1388.062,10.095 1566.135,175.087 1936.616,32.594 
		1703.047,838.573 -65.365,838.573 	"/>
</g>
</svg>
